HIERARCHY
ROOT pelvis
{
  OFFSET 0 100 0
  CHANNELS 6 Xposition Yposition Zposition Zrotation Xrotation Yrotation
  JOINT pelvis_right_femur
  {
    OFFSET -10.78128 -3.44521 -0.5502486
    CHANNELS 3 Zrotation Xrotation Yrotation
    JOINT right_femur_tibia
    {
      OFFSET -0.8047443 -44.0398 -0.1307829
      CHANNELS 3 Zrotation Xrotation Yrotation
      JOINT right_tibia_foot
      {
        OFFSET 3.006224 -47.83518 -5
        CHANNELS 3 Zrotation Xrotation Yrotation
        End Site
        {
          OFFSET 0 -5 15
        }
      }
    }
  }
  JOINT pelvis_left_femur
  {
    OFFSET 10.78128 -3.44521 -0.5502486
    CHANNELS 3 Zrotation Xrotation Yrotation
    JOINT left_femur_tibia
    {
      OFFSET 0.8047443 -44.0398 -0.1307829
      CHANNELS 3 Zrotation Xrotation Yrotation
      JOINT left_tibia_foot
      {
        OFFSET -4.370144 -48.10324 -4.275266
        CHANNELS 3 Zrotation Xrotation Yrotation
        End Site
        {
          OFFSET 0 -5 15
        }
      }
    }
  }
  JOINT pelvis_spine1
  {
    OFFSET 0 6.468898 -3.129235
    CHANNELS 3 Zrotation Xrotation Yrotation
    JOINT spine1
    {
      OFFSET 0 23.15396 4.99043
      CHANNELS 3 Zrotation Xrotation Yrotation
      JOINT spine2
      {
        OFFSET 0 20.79997 -5.064912
        CHANNELS 3 Zrotation Xrotation Yrotation
        JOINT neck
        {
          OFFSET 0 14.38658 9.616178
          CHANNELS 3 Zrotation Xrotation Yrotation
          End Site
          {
            OFFSET 0 20 0
          }
        }
      }
      JOINT right_manubrium
      {
        OFFSET -5.722621 16.35077 3.967754
        CHANNELS 3 Zrotation Xrotation Yrotation
        JOINT right_clavicle
        {
          OFFSET -13.16364 1.694482 -4.693211
          CHANNELS 3 Zrotation Xrotation Yrotation
          JOINT right_humerus
          {
            OFFSET -28.5034 -0.3100689 -2.792744
            CHANNELS 3 Zrotation Xrotation Yrotation
            JOINT right_radius
            {
              OFFSET -25.15693 0.02248979 -1.271978
              CHANNELS 3 Zrotation Xrotation Yrotation
              End Site
              {
                OFFSET -15 0 0
              }
            }
          }
        }
      }
      JOINT left_manubrium
      {
        OFFSET 5.722621 16.35077 3.967754
        CHANNELS 3 Zrotation Xrotation Yrotation
        JOINT left_clavicle
        {
          OFFSET 13.16364 1.694482 -4.693211
          CHANNELS 3 Zrotation Xrotation Yrotation
          JOINT left_humerus
          {
            OFFSET 29.39168 -1.063119 -2.237045
            CHANNELS 3 Zrotation Xrotation Yrotation
            JOINT left_radius
            {
              OFFSET 24.59957 -0.9528479 0.9047498
              CHANNELS 3 Zrotation Xrotation Yrotation
              End Site
              {
                OFFSET 15 -0 -0
              }
            }
          }
        }
      }
    }
  }
}
MOTION
Frames: 7
Frame Time: 0.0416666666667
0 103.5113 0 1.169616 -2.789427 0.1261295 1.984137 -11.15532 7.578535 -0 40.9078 -0 -6.600828 -16.37516 -4.143973 -6.353332 11.91987 -23.43583 -0 5.591025 -0 1.514432 -18.22232 23.3703 -0.4810136 -1.677899 4.751658 0.1123087 7.607961 -6.972295 1.542895 23.04499 7.949745 5.220269 -22.61146 8.855171 5.453757 -18.92033 10.48359 90.28743 37.32954 -24.88797 -0 0 15.85391 -7.148507 8.534918 1.958242 6.248245 -20.82764 -3.272826 -103.0519 42.0575 31.50626 0 0 -23.97921 -8.884272 18.68601 28.01265
0.221167 103.8353 1.298211 0.3391675 -1.702888 0.1159994 3.397493 -13.39349 8.971497 -0 42.76418 -0 -6.794812 -15.79477 -4.584705 -5.881465 11.40647 -23.60756 -0 5.858687 -0 0.6488868 -19.12495 23.44413 -0.468205 -1.657246 4.673935 0.1695863 7.679579 -7.058575 1.513032 22.8871 8.030388 5.220155 -22.62478 8.888454 5.479749 -18.79098 10.4853 90.3965 37.36665 -25.03896 -0 0 15.60858 -7.40995 8.876264 2.14425 6.34121 -20.96222 -3.265124 -102.2437 41.70222 30.65384 0 0 -24.35057 -8.452401 18.44846 27.51695
0.477439 103.8473 3.024346 -0.1746551 -0.4857841 0.159244 4.350691 -19.33711 8.40949 -0 38.38784 -0 -6.427154 -13.21438 -4.456291 -5.694956 11.26486 -21.65856 -0 5.410709 -0 1.502683 -20.29644 22.47201 -0.8358844 -1.53463 3.938799 1.008369 7.460672 -7.47582 1.432899 22.76768 7.76761 4.781996 -23.03718 8.742699 5.864225 -18.1403 10.68033 89.44349 36.59665 -24.5307 -0 0 14.7759 -6.961988 8.74297 2.884971 5.871588 -20.45462 -3.21227 -100.2898 40.94029 28.31268 0 0 -23.89909 -8.190011 18.04495 26.60466
0.7373373 103.5833 5.080601 -0.4897944 0.263351 0.2378333 4.939318 -23.78804 7.939376 -0 34.77515 -0 -6.007937 -11.54762 -4.391602 -5.552113 11.54323 -20.51546 -0 5.327613 -0 1.75744 -21.41726 21.7028 -0.9308856 -1.480969 3.620719 1.337726 7.48643 -7.711787 1.378744 22.53774 7.783704 4.645571 -23.19688 8.754578 6.008951 -17.78503 10.74217 89.30699 36.37073 -24.58828 -0 0 14.20718 -7.093871 9.074051 3.310636 5.848941 -20.47103 -3.187646 -98.79289 40.20589 26.60998 0 0 -24.22878 -7.539964 17.62687 25.65875
0.9787165 102.9834 7.549418 -0.5382402 0.7553697 0.3549962 5.110881 -27.82929 7.179437 -0 29.80385 -0 -5.491927 -10.08915 -4.27415 -5.535069 12.3272 -19.48648 -0 5.479505 -0 2.406747 -22.37803 21.01714 -0.9947776 -1.447632 3.2882 1.659734 7.577147 -7.989487 1.334358 22.21158 7.851905 4.522442 -23.35964 8.832794 6.152451 -17.38846 10.78637 89.33388 36.15276 -24.83425 -0 0 13.5224 -7.259194 9.539251 3.733071 5.932481 -20.61077 -3.163126 -97.01177 39.2626 24.56193 0 0 -24.88636 -6.571117 17.10186 24.38114
1.195295 102.1415 10.46203 -0.5622831 1.267645 0.541822 5.24733 -31.20828 6.418678 -0 24.9822 -0 -5.192387 -8.513849 -4.011243 -5.515786 13.27344 -18.76278 -0 6.095626 -0 2.822569 -23.16403 20.27658 -0.9695489 -1.453776 3.114327 1.787218 7.727296 -8.183981 1.324428 21.89653 7.974477 4.492957 -23.4165 8.963595 6.20852 -17.13412 10.77396 89.62224 36.10828 -25.24816 -0 0 13.00852 -7.460736 10.02786 3.950121 6.150624 -20.89199 -3.153068 -95.62868 38.49395 22.97639 0 0 -25.77256 -5.605541 16.66376 23.27014
1.386748 101.1912 13.88605 -0.6444499 1.982145 0.848311 5.518076 -33.9125 5.736084 -0 20.51151 -0 -5.17226 -6.555401 -3.559199 -5.455058 14.23675 -18.17237 -0 7.280679 -0 2.918244 -23.59115 19.32272 -0.914873 -1.467899 2.996928 1.844779 7.893728 -8.345686 1.327019 21.58935 8.112937 4.493246 -23.42981 9.108673 6.221189 -16.92775 10.73927 90.00904 36.13425 -25.71141 -0 0 12.54355 -7.691741 10.52843 4.101606 6.416323 -21.2262 -3.146283 -94.37602 37.76907 21.54094 0 0 -26.7646 -4.636484 16.24301 22.21337
